<svg width="79" height="80" viewBox="0 0 79 80" fill="none" xmlns="http://www.w3.org/2000/svg">
<g filter="url(#filter0_d_2930_38153)">
<rect x="20" y="12" width="34.2857" height="32" rx="12" fill="white"/>
<rect x="20.5" y="12.5" width="33.2857" height="31" rx="11.5" stroke="#FF8328"/>
<rect x="20.5" y="12.5" width="33.2857" height="31" rx="11.5" stroke="white" stroke-opacity="0.7"/>
<g opacity="0.4">
<path d="M41.9812 33.8514C41.5622 34.9257 40.5412 35.619 39.3907 35.619H34.8955C33.7374 35.619 32.7241 34.9257 32.305 33.8514C31.886 32.7695 32.1755 31.5733 33.0288 30.7962L36.1145 28H38.1793L41.2574 30.7962C42.1107 31.5733 42.3926 32.7695 41.9812 33.8514Z" fill="#FF8328"/>
<path d="M41.9812 33.8514C41.5622 34.9257 40.5412 35.619 39.3907 35.619H34.8955C33.7374 35.619 32.7241 34.9257 32.305 33.8514C31.886 32.7695 32.1755 31.5733 33.0288 30.7962L36.1145 28H38.1793L41.2574 30.7962C42.1107 31.5733 42.3926 32.7695 41.9812 33.8514Z" fill="white" fill-opacity="0.1"/>
</g>
<path d="M38.5297 32.6788H35.7564C35.4669 32.6788 35.2383 32.4426 35.2383 32.1607C35.2383 31.8711 35.4745 31.6426 35.7564 31.6426H38.5297C38.8192 31.6426 39.0478 31.8788 39.0478 32.1607C39.0478 32.4426 38.8116 32.6788 38.5297 32.6788Z" fill="#FF8328"/>
<path d="M38.5297 32.6788H35.7564C35.4669 32.6788 35.2383 32.4426 35.2383 32.1607C35.2383 31.8711 35.4745 31.6426 35.7564 31.6426H38.5297C38.8192 31.6426 39.0478 31.8788 39.0478 32.1607C39.0478 32.4426 38.8116 32.6788 38.5297 32.6788Z" fill="white" fill-opacity="0.1"/>
<path d="M41.9815 22.1485C41.5625 21.0742 40.5415 20.3809 39.3911 20.3809H34.8958C33.7453 20.3809 32.7244 21.0742 32.3053 22.1485C31.8939 23.2304 32.1758 24.4266 33.0368 25.2037L36.1149 27.9999H38.1796L41.2577 25.2037C42.1111 24.4266 42.393 23.2304 41.9815 22.1485ZM38.5301 24.3656H35.7568C35.4673 24.3656 35.2387 24.1294 35.2387 23.8475C35.2387 23.5656 35.4749 23.3294 35.7568 23.3294H38.5301C38.8196 23.3294 39.0482 23.5656 39.0482 23.8475C39.0482 24.1294 38.812 24.3656 38.5301 24.3656Z" fill="#FF8328"/>
<path d="M41.9815 22.1485C41.5625 21.0742 40.5415 20.3809 39.3911 20.3809H34.8958C33.7453 20.3809 32.7244 21.0742 32.3053 22.1485C31.8939 23.2304 32.1758 24.4266 33.0368 25.2037L36.1149 27.9999H38.1796L41.2577 25.2037C42.1111 24.4266 42.393 23.2304 41.9815 22.1485ZM38.5301 24.3656H35.7568C35.4673 24.3656 35.2387 24.1294 35.2387 23.8475C35.2387 23.5656 35.4749 23.3294 35.7568 23.3294H38.5301C38.8196 23.3294 39.0482 23.5656 39.0482 23.8475C39.0482 24.1294 38.812 24.3656 38.5301 24.3656Z" fill="white" fill-opacity="0.1"/>
</g>
<defs>
<filter id="filter0_d_2930_38153" x="-4" y="0" width="82.2852" height="80" filterUnits="userSpaceOnUse" color-interpolation-filters="sRGB">
<feFlood flood-opacity="0" result="BackgroundImageFix"/>
<feColorMatrix in="SourceAlpha" type="matrix" values="0 0 0 0 0 0 0 0 0 0 0 0 0 0 0 0 0 0 127 0" result="hardAlpha"/>
<feOffset dy="12"/>
<feGaussianBlur stdDeviation="12"/>
<feComposite in2="hardAlpha" operator="out"/>
<feColorMatrix type="matrix" values="0 0 0 0 0.579167 0 0 0 0 0.579167 0 0 0 0 0.579167 0 0 0 0.12 0"/>
<feBlend mode="normal" in2="BackgroundImageFix" result="effect1_dropShadow_2930_38153"/>
<feBlend mode="normal" in="SourceGraphic" in2="effect1_dropShadow_2930_38153" result="shape"/>
</filter>
</defs>
</svg>
