<svg width="24" height="25" viewBox="0 0 24 25" fill="none" xmlns="http://www.w3.org/2000/svg">
<path d="M16.25 23.4062C17.2165 23.4062 18 22.6227 18 21.6562C18 20.6898 17.2165 19.9062 16.25 19.9062C15.2835 19.9062 14.5 20.6898 14.5 21.6562C14.5 22.6227 15.2835 23.4062 16.25 23.4062Z" fill="#94A3B8"/>
<path d="M8.25 23.4062C9.2165 23.4062 10 22.6227 10 21.6562C10 20.6898 9.2165 19.9062 8.25 19.9062C7.2835 19.9062 6.5 20.6898 6.5 21.6562C6.5 22.6227 7.2835 23.4062 8.25 23.4062Z" fill="#94A3B8"/>
<path opacity="0.4" d="M4.84 4.84625L4.64 7.29625C4.6 7.76625 4.97 8.15625 5.44 8.15625H20.75C21.17 8.15625 21.52 7.83624 21.55 7.41624C21.68 5.64624 20.33 4.20625 18.56 4.20625H6.28999C6.18999 3.76625 5.98999 3.34625 5.67999 2.99625C5.18999 2.46625 4.49 2.15625 3.77 2.15625H2C1.59 2.15625 1.25 2.49625 1.25 2.90625C1.25 3.31625 1.59 3.65625 2 3.65625H3.74001C4.05001 3.65625 4.34 3.78626 4.55 4.00626C4.76 4.23626 4.86 4.53625 4.84 4.84625Z" fill="#94A3B8"/>
<path d="M20.5101 9.65625H5.17006C4.75006 9.65625 4.41005 9.97625 4.37005 10.3862L4.01005 14.7363C3.87005 16.4363 5.21006 17.9062 6.92006 17.9062H18.0401C19.5401 17.9062 20.8601 16.6763 20.9701 15.1763L21.3001 10.5063C21.3401 10.0463 20.9801 9.65625 20.5101 9.65625Z" fill="#94A3B8"/>
</svg>
