<svg width="18" height="19" viewBox="0 0 18 19" fill="none" xmlns="http://www.w3.org/2000/svg">
<path opacity="0.4" d="M11.61 3.15625H5.64C3.0525 3.15625 1.5 4.70125 1.5 7.29625V13.2587C1.5 15.8612 3.0525 17.4062 5.64 17.4062H11.6025C14.1975 17.4062 15.7425 15.8612 15.7425 13.2662V7.29625C15.75 4.70125 14.1975 3.15625 11.61 3.15625Z" fill="#3587FD"/>
<path d="M15.765 3.14124C14.4225 1.79124 13.11 1.76124 11.73 3.14124L10.8825 3.98124C10.8075 4.05624 10.785 4.16124 10.815 4.25874C11.34 6.09624 12.81 7.56624 14.6475 8.09124C14.67 8.09874 14.7075 8.09874 14.73 8.09874C14.805 8.09874 14.88 8.06874 14.9325 8.01624L15.765 7.17624C16.4475 6.49374 16.785 5.84124 16.785 5.17374C16.785 4.49874 16.4475 3.83124 15.765 3.14124Z" fill="#3587FD"/>
<path d="M13.395 8.72126C13.1925 8.62376 12.9975 8.52626 12.8175 8.41376C12.6675 8.32376 12.5175 8.22625 12.375 8.12125C12.255 8.04625 12.12 7.93376 11.985 7.82126C11.97 7.81376 11.925 7.77625 11.865 7.71625C11.6325 7.52875 11.385 7.27375 11.1525 6.99625C11.1375 6.98125 11.0925 6.93625 11.055 6.86875C10.98 6.78625 10.8675 6.64375 10.77 6.48625C10.6875 6.38125 10.59 6.23125 10.5 6.07375C10.3875 5.88625 10.29 5.69875 10.2 5.50375C10.1025 5.29375 10.0275 5.09875 9.95995 4.91125L5.92495 8.94626C5.66245 9.20876 5.40745 9.70376 5.35495 10.0713L5.03245 12.3063C4.96495 12.7788 5.09245 13.2213 5.38495 13.5138C5.63245 13.7613 5.96995 13.8888 6.34495 13.8888C6.42745 13.8888 6.50995 13.8813 6.59245 13.8738L8.81995 13.5588C9.18745 13.5063 9.68245 13.2588 9.94495 12.9888L13.98 8.95375C13.7925 8.89375 13.605 8.81126 13.395 8.72126Z" fill="#3587FD"/>
</svg>
