<svg width="18" height="18" viewBox="0 0 18 18" fill="none" xmlns="http://www.w3.org/2000/svg">
<path opacity="0.4" d="M14.0026 1.5H12.5776C10.9426 1.5 10.0801 2.3625 10.0801 3.9975V5.4225C10.0801 7.0575 10.9426 7.92 12.5776 7.92H14.0026C15.6376 7.92 16.5001 7.0575 16.5001 5.4225V3.9975C16.5001 2.3625 15.6376 1.5 14.0026 1.5Z" fill="#FE964A"/>
<path opacity="0.4" d="M5.43 10.0723H4.005C2.3625 10.0723 1.5 10.9348 1.5 12.5698V13.9948C1.5 15.6373 2.3625 16.4998 3.9975 16.4998H5.4225C7.0575 16.4998 7.92 15.6373 7.92 14.0023V12.5773C7.9275 10.9348 7.065 10.0723 5.43 10.0723Z" fill="#FE964A"/>
<path d="M4.7175 7.935C6.49448 7.935 7.935 6.49448 7.935 4.7175C7.935 2.94052 6.49448 1.5 4.7175 1.5C2.94052 1.5 1.5 2.94052 1.5 4.7175C1.5 6.49448 2.94052 7.935 4.7175 7.935Z" fill="#FE964A"/>
<path d="M13.282 16.5004C15.0589 16.5004 16.4995 15.0599 16.4995 13.2829C16.4995 11.506 15.0589 10.0654 13.282 10.0654C11.505 10.0654 10.0645 11.506 10.0645 13.2829C10.0645 15.0599 11.505 16.5004 13.282 16.5004Z" fill="#FE964A"/>
</svg>
