<svg width="25" height="25" viewBox="0 0 25 25" fill="none" xmlns="http://www.w3.org/2000/svg">
<path opacity="0.4" d="M22.125 11.6663C22.125 11.1963 21.745 10.8063 21.265 10.8063H2.985C2.505 10.8063 2.125 11.1863 2.125 11.6663C2.125 17.5563 6.235 21.6663 12.125 21.6663C18.015 21.6663 22.125 17.5463 22.125 11.6663Z" fill="#F5222D"/>
<path d="M12.655 4.36623L15.505 7.20623C15.795 7.49623 15.795 7.97623 15.505 8.26623C15.215 8.55623 14.735 8.55623 14.445 8.26623L12.875 6.70623V16.2762C12.875 16.6862 12.535 17.0262 12.125 17.0262C11.715 17.0262 11.375 16.6862 11.375 16.2762V6.70623L9.81499 8.27623C9.52499 8.56623 9.04499 8.56623 8.75499 8.27623C8.60499 8.12623 8.52499 7.93623 8.52499 7.74623C8.52499 7.55623 8.59499 7.36623 8.74499 7.21623L11.595 4.37623C11.885 4.07623 12.365 4.07623 12.655 4.36623Z" fill="#F5222D"/>
</svg>
