<svg width="25" height="22" viewBox="0 0 25 22" fill="none" xmlns="http://www.w3.org/2000/svg">
<path opacity="0.4" d="M10.2537 15.8227C14.783 15.8227 18.4546 12.6746 18.4546 8.79123C18.4546 4.90786 14.783 1.75977 10.2537 1.75977C5.72443 1.75977 2.05273 4.90786 2.05273 8.79123C2.05273 12.6746 5.72443 15.8227 10.2537 15.8227Z" fill="#24A44B"/>
<path d="M22.5506 14.0719C22.5506 16.9761 19.7998 19.3345 16.4127 19.3345C14.3188 19.3345 12.4816 18.4369 11.373 17.0729C15.8482 16.6416 19.4098 13.5879 19.9127 9.75098C21.5036 10.7014 22.5506 12.2767 22.5506 14.0719Z" fill="#24A44B"/>
<path d="M11.7523 8.54558L9.28893 7.80635C9.04259 7.73595 8.99127 7.71835 8.99127 7.41034C8.99127 7.18153 9.17603 6.99672 9.4121 6.99672H10.9517C11.2802 6.99672 11.547 7.25193 11.547 7.56874C11.547 7.92956 11.896 8.22877 12.3168 8.22877C12.7376 8.22877 13.0866 7.92956 13.0866 7.56874C13.0866 6.55671 12.1731 5.72947 11.0338 5.68547V5.64147C11.0338 5.28066 10.6848 4.98145 10.264 4.98145C9.84319 4.98145 9.49421 5.27186 9.49421 5.64147V5.68547H9.40184C8.32411 5.68547 7.44141 6.4599 7.44141 7.41914C7.44141 8.25517 7.8725 8.79199 8.76547 9.056L11.2391 9.79523C11.4854 9.86563 11.5368 9.88323 11.5368 10.1912C11.5368 10.4201 11.352 10.6049 11.1159 10.6049H9.57632C9.24787 10.6049 8.98101 10.3497 8.98101 10.0328C8.98101 9.67202 8.63203 9.37281 8.21121 9.37281C7.79038 9.37281 7.44141 9.67202 7.44141 10.0328C7.44141 11.0449 8.3549 11.8721 9.49421 11.9161V11.9689C9.49421 12.3297 9.84319 12.6289 10.264 12.6289C10.6848 12.6289 11.0338 12.3297 11.0338 11.9689V11.9249H11.1262C12.2039 11.9249 13.0866 11.1505 13.0866 10.1912C13.0866 9.35521 12.6453 8.81839 11.7523 8.54558Z" fill="#24A44B"/>
</svg>
