<svg width="25" height="25" viewBox="0 0 25 25" fill="none" xmlns="http://www.w3.org/2000/svg">
<path opacity="0.4" d="M22.375 11.6663C22.375 11.1963 21.995 10.8063 21.515 10.8063H3.235C2.755 10.8063 2.375 11.1863 2.375 11.6663C2.375 17.5563 6.485 21.6663 12.375 21.6663C18.265 21.6663 22.375 17.5463 22.375 11.6663Z" fill="#0CAF60"/>
<path d="M12.835 16.8062L15.685 13.9662C15.975 13.6762 15.975 13.1962 15.685 12.9062C15.395 12.6162 14.915 12.6162 14.625 12.9062L13.065 14.4662V4.89624C13.065 4.48624 12.725 4.14624 12.315 4.14624C11.905 4.14624 11.565 4.48624 11.565 4.89624V14.4662L9.995 12.9062C9.705 12.6162 9.225 12.6162 8.935 12.9062C8.785 13.0562 8.715 13.2462 8.715 13.4362C8.715 13.6262 8.785 13.8162 8.935 13.9662L11.785 16.8062C12.075 17.1062 12.545 17.1062 12.835 16.8062Z" fill="#0CAF60"/>
</svg>
