<svg width="25" height="25" viewBox="0 0 25 25" fill="none" xmlns="http://www.w3.org/2000/svg">
<path opacity="0.4" d="M8.625 22.9062H16.625C19.385 22.9062 21.625 20.6663 21.625 17.9062V7.90625C21.625 5.14625 19.385 2.90625 16.625 2.90625H8.625C5.865 2.90625 3.625 5.14625 3.625 7.90625V17.9062C3.625 20.6663 5.865 22.9062 8.625 22.9062Z" fill="#40A9FF"/>
<path d="M15.625 6.61627H9.625C8.595 6.61627 7.745 7.45627 7.745 8.49627V9.49627C7.745 10.5263 8.585 11.3763 9.625 11.3763H15.625C16.655 11.3763 17.505 10.5363 17.505 9.49627V8.49627C17.505 7.45627 16.665 6.61627 15.625 6.61627Z" fill="#40A9FF"/>
<path d="M8.78502 15.8263C8.64502 15.8263 8.51502 15.7963 8.39502 15.7463C8.27502 15.6963 8.16502 15.6263 8.07502 15.5363C7.88502 15.3463 7.77502 15.0963 7.77502 14.8263C7.77502 14.6963 7.80502 14.5663 7.85502 14.4463C7.90502 14.3163 7.97502 14.2163 8.07502 14.1163C8.30502 13.8863 8.65502 13.7763 8.97502 13.8463C9.03502 13.8563 9.10502 13.8763 9.16502 13.9063C9.22502 13.9263 9.28502 13.9563 9.33502 13.9963C9.39502 14.0263 9.44502 14.0763 9.48502 14.1163C9.57502 14.2163 9.65502 14.3163 9.70502 14.4463C9.75502 14.5663 9.77502 14.6963 9.77502 14.8263C9.77502 15.0963 9.67502 15.3463 9.48502 15.5363C9.29502 15.7263 9.04502 15.8263 8.78502 15.8263Z" fill="#40A9FF"/>
<path d="M12.775 15.8262C12.515 15.8262 12.265 15.7262 12.075 15.5362C11.885 15.3462 11.775 15.0962 11.775 14.8262C11.775 14.5662 11.885 14.3062 12.075 14.1162C12.445 13.7462 13.115 13.7462 13.485 14.1162C13.575 14.2162 13.655 14.3162 13.705 14.4462C13.755 14.5662 13.775 14.6962 13.775 14.8262C13.775 15.0962 13.675 15.3462 13.485 15.5362C13.295 15.7262 13.045 15.8262 12.775 15.8262Z" fill="#40A9FF"/>
<path d="M16.775 15.8262C16.515 15.8262 16.265 15.7262 16.075 15.5362C15.885 15.3462 15.775 15.0962 15.775 14.8262C15.775 14.5662 15.885 14.3062 16.075 14.1162C16.445 13.7462 17.115 13.7462 17.485 14.1162C17.675 14.3062 17.785 14.5662 17.785 14.8262C17.785 14.9562 17.755 15.0862 17.705 15.2062C17.655 15.3262 17.585 15.4362 17.485 15.5362C17.295 15.7262 17.045 15.8262 16.775 15.8262Z" fill="#40A9FF"/>
<path d="M8.78502 19.8262C8.51502 19.8262 8.26502 19.7262 8.07502 19.5362C7.88502 19.3462 7.77502 19.0962 7.77502 18.8262C7.77502 18.5662 7.88502 18.3062 8.07502 18.1162C8.16502 18.0262 8.27502 17.9562 8.39502 17.9062C8.64502 17.8062 8.91502 17.8062 9.16502 17.9062C9.22502 17.9262 9.28502 17.9562 9.33502 17.9962C9.39502 18.0262 9.44502 18.0762 9.48502 18.1162C9.67502 18.3062 9.78502 18.5662 9.78502 18.8262C9.78502 19.0962 9.67502 19.3462 9.48502 19.5362C9.29502 19.7262 9.04502 19.8262 8.78502 19.8262Z" fill="#40A9FF"/>
<path d="M12.775 19.8262C12.515 19.8262 12.265 19.7262 12.075 19.5362C11.885 19.3462 11.775 19.0962 11.775 18.8262C11.775 18.7562 11.785 18.6962 11.795 18.6262C11.815 18.5662 11.835 18.5062 11.855 18.4462C11.885 18.3862 11.915 18.3262 11.945 18.2662C11.985 18.2162 12.025 18.1662 12.075 18.1162C12.165 18.0262 12.275 17.9562 12.395 17.9062C12.765 17.7562 13.205 17.8362 13.485 18.1162C13.675 18.3062 13.775 18.5662 13.775 18.8262C13.775 19.0962 13.675 19.3462 13.485 19.5362C13.395 19.6262 13.285 19.6962 13.165 19.7462C13.045 19.7962 12.915 19.8262 12.775 19.8262Z" fill="#40A9FF"/>
<path d="M16.775 19.8262C16.645 19.8262 16.515 19.7962 16.395 19.7462C16.275 19.6962 16.165 19.6262 16.075 19.5362C15.885 19.3462 15.785 19.0962 15.785 18.8262C15.785 18.5662 15.885 18.3062 16.075 18.1162C16.345 17.8362 16.795 17.7562 17.165 17.9062C17.285 17.9562 17.395 18.0262 17.485 18.1162C17.675 18.3062 17.775 18.5662 17.775 18.8262C17.775 19.0962 17.675 19.3462 17.485 19.5362C17.295 19.7262 17.045 19.8262 16.775 19.8262Z" fill="#40A9FF"/>
</svg>
