<svg width="19" height="18" viewBox="0 0 19 18" fill="none" xmlns="http://www.w3.org/2000/svg">
<path d="M14.2724 13.773C14.5653 13.4801 14.5653 13.0052 14.2724 12.7123L10.5606 9.00052L14.2734 5.2877C14.5663 4.99481 14.5663 4.51994 14.2734 4.22704C13.9805 3.93415 13.5056 3.93415 13.2127 4.22704L9.49993 7.93986L5.7871 4.22704C5.49421 3.93415 5.01934 3.93415 4.72644 4.22704C4.43355 4.51993 4.43355 4.99481 4.72644 5.2877L8.43927 9.00052L4.72746 12.7123C4.43457 13.0052 4.43457 13.4801 4.72746 13.773C5.02036 14.0659 5.49523 14.0659 5.78812 13.773L9.49993 10.0612L13.2117 13.773C13.5046 14.0659 13.9795 14.0659 14.2724 13.773Z" fill="white"/>
</svg>
