<svg width="16" height="17" viewBox="0 0 16 17" fill="none" xmlns="http://www.w3.org/2000/svg">
<path opacity="0.4" d="M13.4001 5.53292C13.4001 5.89292 13.2068 6.21956 12.9001 6.38623L11.7401 7.0129L10.7534 7.53959L8.70677 8.64624C8.48677 8.76624 8.24677 8.82625 8.0001 8.82625C7.75344 8.82625 7.51344 8.76624 7.29344 8.64624L3.1001 6.38623C2.79343 6.21956 2.6001 5.89292 2.6001 5.53292C2.6001 5.17292 2.79343 4.84623 3.1001 4.67956L4.41343 3.9729L5.4601 3.40625L7.29344 2.41959C7.73344 2.17959 8.26677 2.17959 8.70677 2.41959L12.9001 4.67956C13.2068 4.84623 13.4001 5.17292 13.4001 5.53292Z" fill="#94A3B8"/>
<path opacity="0.4" d="M6.59989 9.43293L2.69989 7.4796C2.39989 7.32627 2.05323 7.34627 1.76656 7.5196C1.47989 7.69293 1.31323 7.99962 1.31323 8.33295V12.0196C1.31323 12.6596 1.66656 13.2329 2.23989 13.5196L6.13989 15.4663C6.27323 15.533 6.4199 15.5663 6.56657 15.5663C6.7399 15.5663 6.91324 15.5196 7.06657 15.4196C7.35324 15.2463 7.5199 14.9396 7.5199 14.6063V10.9196C7.52656 10.293 7.17323 9.7196 6.59989 9.43293Z" fill="#94A3B8"/>
<path opacity="0.4" d="M14.6867 8.33962V12.0263C14.6867 12.6596 14.3334 13.2329 13.7601 13.5196L9.86007 15.4729C9.72673 15.5396 9.58006 15.5729 9.43339 15.5729C9.26006 15.5729 9.08674 15.5263 8.92674 15.4263C8.64674 15.253 8.47339 14.9463 8.47339 14.6129V10.9329C8.47339 10.2929 8.82673 9.71959 9.40007 9.43292L10.8334 8.71958L11.8334 8.21958L13.3001 7.48626C13.6001 7.33293 13.9467 7.34626 14.2334 7.52626C14.5134 7.6996 14.6867 8.00628 14.6867 8.33962Z" fill="#94A3B8"/>
<path d="M11.74 7.0129L10.7533 7.53959L4.41333 3.9729L5.46 3.40625L11.58 6.85958C11.6467 6.89958 11.7 6.9529 11.74 7.0129Z" fill="#94A3B8"/>
<path d="M11.8333 8.21957V9.73292C11.8333 10.0063 11.6066 10.2329 11.3333 10.2329C11.0599 10.2329 10.8333 10.0063 10.8333 9.73292V8.71957L11.8333 8.21957Z" fill="#94A3B8"/>
</svg>
