<svg width="18" height="18" viewBox="0 0 18 18" fill="none" xmlns="http://www.w3.org/2000/svg">
<path d="M11.25 4.61273H4.5C2.8425 4.61273 1.5 5.95523 1.5 7.61273V4.9052C1.5 3.3752 2.7375 2.1377 4.2675 2.1377H8.4825C10.0125 2.1377 11.25 3.08273 11.25 4.61273Z" fill="#FF8328"/>
<path d="M11.25 4.61273H4.5C2.8425 4.61273 1.5 5.95523 1.5 7.61273V4.9052C1.5 3.3752 2.7375 2.1377 4.2675 2.1377H8.4825C10.0125 2.1377 11.25 3.08273 11.25 4.61273Z" fill="white" fill-opacity="0.1"/>
<g opacity="0.4">
<path d="M13.11 9.1498C12.735 9.5173 12.555 10.0723 12.705 10.6348C12.8925 11.3323 13.5825 11.7748 14.3025 11.7748H15V12.8623C15 14.5198 13.6575 15.8623 12 15.8623H4.5C2.8425 15.8623 1.5 14.5198 1.5 12.8623V7.6123C1.5 5.9548 2.8425 4.6123 4.5 4.6123H12C13.65 4.6123 15 5.9623 15 7.6123V8.69977H14.19C13.77 8.69977 13.3875 8.8648 13.11 9.1498Z" fill="#FF8328"/>
<path d="M13.11 9.1498C12.735 9.5173 12.555 10.0723 12.705 10.6348C12.8925 11.3323 13.5825 11.7748 14.3025 11.7748H15V12.8623C15 14.5198 13.6575 15.8623 12 15.8623H4.5C2.8425 15.8623 1.5 14.5198 1.5 12.8623V7.6123C1.5 5.9548 2.8425 4.6123 4.5 4.6123H12C13.65 4.6123 15 5.9623 15 7.6123V8.69977H14.19C13.77 8.69977 13.3875 8.8648 13.11 9.1498Z" fill="white" fill-opacity="0.1"/>
</g>
<path d="M16.4992 9.46521V11.0102C16.4992 11.4302 16.1542 11.7752 15.7267 11.7752H14.2792C13.4692 11.7752 12.7267 11.1827 12.6592 10.3727C12.6142 9.90023 12.7942 9.45772 13.1092 9.15022C13.3867 8.86522 13.7692 8.7002 14.1892 8.7002H15.7267C16.1542 8.7002 16.4992 9.04521 16.4992 9.46521Z" fill="#FF8328"/>
<path d="M16.4992 9.46521V11.0102C16.4992 11.4302 16.1542 11.7752 15.7267 11.7752H14.2792C13.4692 11.7752 12.7267 11.1827 12.6592 10.3727C12.6142 9.90023 12.7942 9.45772 13.1092 9.15022C13.3867 8.86522 13.7692 8.7002 14.1892 8.7002H15.7267C16.1542 8.7002 16.4992 9.04521 16.4992 9.46521Z" fill="white" fill-opacity="0.1"/>
<path d="M9.75 8.9248H5.25C4.9425 8.9248 4.6875 8.6698 4.6875 8.3623C4.6875 8.0548 4.9425 7.7998 5.25 7.7998H9.75C10.0575 7.7998 10.3125 8.0548 10.3125 8.3623C10.3125 8.6698 10.0575 8.9248 9.75 8.9248Z" fill="#FF8328"/>
<path d="M9.75 8.9248H5.25C4.9425 8.9248 4.6875 8.6698 4.6875 8.3623C4.6875 8.0548 4.9425 7.7998 5.25 7.7998H9.75C10.0575 7.7998 10.3125 8.0548 10.3125 8.3623C10.3125 8.6698 10.0575 8.9248 9.75 8.9248Z" fill="white" fill-opacity="0.1"/>
</svg>
