<svg width="18" height="19" viewBox="0 0 18 19" fill="none" xmlns="http://www.w3.org/2000/svg">
<path d="M15.8025 4.82875C14.595 4.70875 13.3875 4.61875 12.1725 4.55125V4.54375L12.0075 3.56875C11.895 2.87875 11.73 1.84375 9.975 1.84375H8.01C6.2625 1.84375 6.0975 2.83375 5.9775 3.56125L5.82 4.52125C5.1225 4.56625 4.425 4.61125 3.7275 4.67875L2.1975 4.82875C1.8825 4.85875 1.6575 5.13625 1.6875 5.44375C1.7175 5.75125 1.9875 5.97625 2.3025 5.94625L3.8325 5.79625C7.7625 5.40625 11.7225 5.55625 15.6975 5.95375C15.72 5.95375 15.735 5.95375 15.7575 5.95375C16.0425 5.95375 16.29 5.73625 16.32 5.44375C16.3425 5.13625 16.1175 4.85875 15.8025 4.82875Z" fill="#FD6A6A"/>
<path opacity="0.3991" d="M14.4226 7.01125C14.2426 6.82375 13.9951 6.71875 13.7401 6.71875H4.26006C4.00506 6.71875 3.75006 6.82375 3.57756 7.01125C3.40506 7.19875 3.30756 7.45375 3.32256 7.71625L3.78756 15.4112C3.87006 16.5512 3.97506 17.9762 6.59256 17.9762H11.4076C14.0251 17.9762 14.1301 16.5587 14.2126 15.4112L14.6776 7.72375C14.6926 7.45375 14.5951 7.19875 14.4226 7.01125Z" fill="#FD6A6A"/>
<path fill-rule="evenodd" clip-rule="evenodd" d="M7.18506 13.6562C7.18506 13.3456 7.4369 13.0938 7.74756 13.0938H10.2451C10.5557 13.0938 10.8076 13.3456 10.8076 13.6562C10.8076 13.9669 10.5557 14.2188 10.2451 14.2188H7.74756C7.4369 14.2188 7.18506 13.9669 7.18506 13.6562Z" fill="#FD6A6A"/>
<path fill-rule="evenodd" clip-rule="evenodd" d="M6.5625 10.6562C6.5625 10.3456 6.81434 10.0938 7.125 10.0938H10.875C11.1857 10.0938 11.4375 10.3456 11.4375 10.6562C11.4375 10.9669 11.1857 11.2188 10.875 11.2188H7.125C6.81434 11.2188 6.5625 10.9669 6.5625 10.6562Z" fill="#FD6A6A"/>
</svg>
