<svg width="24" height="25" viewBox="0 0 24 25" fill="none" xmlns="http://www.w3.org/2000/svg">
<path d="M14.5 11.6562H8.5C8.09 11.6562 7.75 11.3162 7.75 10.9062C7.75 10.4963 8.09 10.1562 8.5 10.1562H14.5C14.91 10.1562 15.25 10.4963 15.25 10.9062C15.25 11.3162 14.91 11.6562 14.5 11.6562Z" fill="#94A3B8"/>
<path d="M11.5 14.6562H8.5C8.09 14.6562 7.75 14.3162 7.75 13.9062C7.75 13.4963 8.09 13.1562 8.5 13.1562H11.5C11.91 13.1562 12.25 13.4963 12.25 13.9062C12.25 14.3162 11.91 14.6562 11.5 14.6562Z" fill="#94A3B8"/>
<path opacity="0.4" d="M11.5 21.9062C16.7467 21.9062 21 17.653 21 12.4062C21 7.15954 16.7467 2.90625 11.5 2.90625C6.25329 2.90625 2 7.15954 2 12.4062C2 17.653 6.25329 21.9062 11.5 21.9062Z" fill="#94A3B8"/>
<path d="M21.3001 22.9062C21.1201 22.9062 20.9401 22.8362 20.8101 22.7062L18.9501 20.8462C18.6801 20.5762 18.6801 20.1362 18.9501 19.8562C19.2201 19.5862 19.6601 19.5862 19.9401 19.8562L21.8001 21.7162C22.0701 21.9862 22.0701 22.4262 21.8001 22.7062C21.6601 22.8362 21.4801 22.9062 21.3001 22.9062Z" fill="#292D32"/>
</svg>
