<svg width="20" height="21" viewBox="0 0 20 21" fill="none" xmlns="http://www.w3.org/2000/svg">
<path d="M13.9583 3.90166V2.60166C13.9583 2.26 13.675 1.97666 13.3333 1.97666C12.9917 1.97666 12.7083 2.26 12.7083 2.60166V3.85166H7.29165V2.60166C7.29165 2.26 7.00832 1.97666 6.66665 1.97666C6.32499 1.97666 6.04165 2.26 6.04165 2.60166V3.90166C3.79165 4.10999 2.69999 5.45166 2.53332 7.44333C2.51665 7.68499 2.71665 7.88499 2.94999 7.88499H17.05C17.2917 7.88499 17.4917 7.67666 17.4667 7.44333C17.3 5.45166 16.2083 4.10999 13.9583 3.90166Z" fill="#334155"/>
<path opacity="0.4" d="M16.6667 9.13499C17.125 9.13499 17.5 9.50999 17.5 9.96833V15.1017C17.5 17.6017 16.25 19.2683 13.3333 19.2683H6.66667C3.75 19.2683 2.5 17.6017 2.5 15.1017V9.96833C2.5 9.50999 2.875 9.13499 3.33333 9.13499H16.6667Z" fill="#334155"/>
<path d="M7.08333 13.435C6.86667 13.435 6.65 13.3433 6.49167 13.1933C6.34167 13.035 6.25 12.8183 6.25 12.6017C6.25 12.385 6.34167 12.1683 6.49167 12.01C6.725 11.7767 7.09167 11.7017 7.4 11.835C7.50833 11.8767 7.6 11.935 7.675 12.01C7.825 12.1683 7.91667 12.385 7.91667 12.6017C7.91667 12.8183 7.825 13.035 7.675 13.1933C7.51667 13.3433 7.3 13.435 7.08333 13.435Z" fill="#334155"/>
<path d="M9.99996 13.435C9.78329 13.435 9.56663 13.3433 9.40829 13.1933C9.25829 13.035 9.16663 12.8183 9.16663 12.6017C9.16663 12.385 9.25829 12.1683 9.40829 12.01C9.48329 11.935 9.57496 11.8767 9.68329 11.835C9.99163 11.7017 10.3583 11.7767 10.5916 12.01C10.7416 12.1683 10.8333 12.385 10.8333 12.6017C10.8333 12.8183 10.7416 13.035 10.5916 13.1933C10.55 13.2267 10.5083 13.26 10.4666 13.2933C10.4166 13.3267 10.3666 13.3517 10.3166 13.3683C10.2666 13.3933 10.2166 13.41 10.1666 13.4183C10.1083 13.4267 10.0583 13.435 9.99996 13.435Z" fill="#334155"/>
<path d="M12.9167 13.435C12.7 13.435 12.4834 13.3433 12.325 13.1933C12.175 13.035 12.0834 12.8183 12.0834 12.6017C12.0834 12.385 12.175 12.1684 12.325 12.01C12.4084 11.935 12.4917 11.8767 12.6 11.835C12.75 11.7683 12.9167 11.7517 13.0834 11.785C13.1334 11.7933 13.1834 11.81 13.2334 11.835C13.2834 11.8517 13.3334 11.8767 13.3834 11.91C13.425 11.9434 13.4667 11.9767 13.5084 12.01C13.6584 12.1684 13.75 12.385 13.75 12.6017C13.75 12.8183 13.6584 13.035 13.5084 13.1933C13.4667 13.2267 13.425 13.26 13.3834 13.2933C13.3334 13.3267 13.2834 13.3517 13.2334 13.3684C13.1834 13.3934 13.1334 13.41 13.0834 13.4184C13.025 13.4267 12.9667 13.435 12.9167 13.435Z" fill="#334155"/>
<path d="M7.08333 16.3517C6.975 16.3517 6.86667 16.3267 6.76667 16.285C6.65833 16.2434 6.575 16.185 6.49167 16.11C6.34167 15.9517 6.25 15.735 6.25 15.5183C6.25 15.3017 6.34167 15.085 6.49167 14.9267C6.575 14.8517 6.65833 14.7933 6.76667 14.7517C6.91667 14.685 7.08333 14.6683 7.25 14.7017C7.3 14.71 7.35 14.7267 7.4 14.7517C7.45 14.7683 7.5 14.7934 7.55 14.8267C7.59167 14.86 7.63333 14.8933 7.675 14.9267C7.825 15.085 7.91667 15.3017 7.91667 15.5183C7.91667 15.735 7.825 15.9517 7.675 16.11C7.63333 16.1433 7.59167 16.185 7.55 16.21C7.5 16.2433 7.45 16.2684 7.4 16.285C7.35 16.31 7.3 16.3267 7.25 16.335C7.19167 16.3433 7.14167 16.3517 7.08333 16.3517Z" fill="#334155"/>
<path d="M9.99996 16.3517C9.78329 16.3517 9.56663 16.26 9.40829 16.11C9.25829 15.9517 9.16663 15.735 9.16663 15.5183C9.16663 15.3017 9.25829 15.085 9.40829 14.9267C9.71663 14.6183 10.2833 14.6183 10.5916 14.9267C10.7416 15.085 10.8333 15.3017 10.8333 15.5183C10.8333 15.735 10.7416 15.9517 10.5916 16.11C10.4333 16.26 10.2166 16.3517 9.99996 16.3517Z" fill="#334155"/>
<path d="M12.9167 16.3517C12.7 16.3517 12.4834 16.26 12.325 16.11C12.175 15.9517 12.0834 15.735 12.0834 15.5183C12.0834 15.3017 12.175 15.085 12.325 14.9267C12.6334 14.6183 13.2 14.6183 13.5084 14.9267C13.6584 15.085 13.75 15.3017 13.75 15.5183C13.75 15.735 13.6584 15.9517 13.5084 16.11C13.35 16.26 13.1334 16.3517 12.9167 16.3517Z" fill="#334155"/>
</svg>
