<svg width="16" height="16" viewBox="0 0 16 16" fill="none" xmlns="http://www.w3.org/2000/svg">
<path opacity="0.4" d="M11.3333 12.2867H8.66665L5.69997 14.26C5.25997 14.5533 4.66665 14.24 4.66665 13.7067V12.2867C2.66665 12.2867 1.33331 10.9533 1.33331 8.95333V4.95333C1.33331 2.95333 2.66665 1.62 4.66665 1.62H11.3333C13.3333 1.62 14.6666 2.95333 14.6666 4.95333V8.95333C14.6666 10.9533 13.3333 12.2867 11.3333 12.2867Z" fill="#1890FF"/>
<path d="M8.00002 8.07332C7.72669 8.07332 7.50002 7.84665 7.50002 7.57332V7.43334C7.50002 6.66001 8.06668 6.28 8.28001 6.13334C8.52668 5.96667 8.60667 5.85334 8.60667 5.68001C8.60667 5.34667 8.33335 5.07332 8.00002 5.07332C7.66669 5.07332 7.39337 5.34667 7.39337 5.68001C7.39337 5.95334 7.1667 6.18001 6.89337 6.18001C6.62004 6.18001 6.39337 5.95334 6.39337 5.68001C6.39337 4.79334 7.11335 4.07332 8.00002 4.07332C8.88669 4.07332 9.60667 4.79334 9.60667 5.68001C9.60667 6.44001 9.04669 6.82 8.84003 6.96C8.58003 7.13333 8.50002 7.24668 8.50002 7.43334V7.57332C8.50002 7.85332 8.27335 8.07332 8.00002 8.07332Z" fill="#1890FF"/>
<path d="M8 9.73332C7.72 9.73332 7.5 9.50666 7.5 9.23332C7.5 8.95999 7.72667 8.73332 8 8.73332C8.27333 8.73332 8.5 8.95999 8.5 9.23332C8.5 9.50666 8.28 9.73332 8 9.73332Z" fill="#1890FF"/>
</svg>
