<svg width="25" height="25" viewBox="0 0 25 25" fill="none" xmlns="http://www.w3.org/2000/svg">
<path opacity="0.4" d="M20.215 15.3963L19.215 13.7363C19.005 13.3663 18.815 12.6663 18.815 12.2563V9.72627C18.815 6.46627 16.165 3.80627 12.895 3.80627C9.625 3.80627 6.975 6.46627 6.975 9.72627V12.2563C6.975 12.6663 6.785 13.3663 6.575 13.7263L5.565 15.3963C5.165 16.0663 5.075 16.8063 5.325 17.4863C5.565 18.1563 6.135 18.6763 6.875 18.9263C8.815 19.5863 10.855 19.9063 12.895 19.9063C14.935 19.9063 16.975 19.5863 18.915 18.9363C19.615 18.7063 20.155 18.1763 20.415 17.4863C20.675 16.7963 20.605 16.0363 20.215 15.3963Z" fill="#FAAD14"/>
<path d="M15.125 4.22625C14.435 3.95625 13.685 3.80625 12.895 3.80625C12.115 3.80625 11.365 3.94625 10.675 4.22625C11.105 3.41625 11.955 2.90625 12.895 2.90625C13.845 2.90625 14.685 3.41625 15.125 4.22625Z" fill="#FAAD14"/>
<path d="M15.705 20.9163C15.285 22.0763 14.175 22.9062 12.875 22.9062C12.085 22.9062 11.305 22.5863 10.755 22.0163C10.435 21.7163 10.195 21.3162 10.055 20.9062C10.185 20.9262 10.315 20.9362 10.455 20.9562C10.685 20.9862 10.925 21.0162 11.165 21.0362C11.735 21.0862 12.315 21.1162 12.895 21.1162C13.465 21.1162 14.035 21.0862 14.595 21.0362C14.805 21.0162 15.015 21.0062 15.215 20.9762C15.375 20.9562 15.535 20.9363 15.705 20.9163Z" fill="#FAAD14"/>
</svg>
