<svg width="20" height="21" viewBox="0 0 20 21" fill="none" xmlns="http://www.w3.org/2000/svg">
<path d="M14.9334 9.3395C14.6584 9.27283 14.3667 9.2395 14.0667 9.2395C11.8834 9.2395 10.1084 11.0145 10.1084 13.1978C10.1084 13.9395 10.3167 14.6395 10.6834 15.2395C10.9917 15.7562 11.4167 16.1978 11.9334 16.5145C12.5501 16.9228 13.2834 17.1562 14.0667 17.1562C15.5167 17.1562 16.7751 16.3812 17.4584 15.2395C17.8251 14.6395 18.0251 13.9395 18.0251 13.1978C18.0251 11.3145 16.7084 9.73116 14.9334 9.3395ZM16.0417 12.6812L13.9251 14.6312C13.8084 14.7395 13.6501 14.7978 13.5001 14.7978C13.3417 14.7978 13.1834 14.7395 13.0584 14.6145L12.0834 13.6395C11.8417 13.3978 11.8417 12.9978 12.0834 12.7562C12.3251 12.5145 12.7251 12.5145 12.9667 12.7562L13.5167 13.3062L15.1917 11.7645C15.45 11.5312 15.8417 11.5478 16.075 11.7978C16.3084 12.0562 16.2917 12.4478 16.0417 12.6812Z" fill="#94A3B8"/>
<path opacity="0.4" d="M4.50834 2.573H15.4834C16.4 2.573 17.15 3.33132 17.15 4.25632V6.10632C17.15 6.78132 16.7334 7.623 16.3167 8.03966L12.7417 11.2397C12.2417 11.6647 11.9083 12.5063 11.9083 13.173V16.7897C11.9083 17.298 11.575 17.9647 11.1584 18.223L9.99169 18.9813C8.90836 19.6563 7.41672 18.898 7.41672 17.548V13.0897C7.41672 12.498 7.08334 11.7397 6.75001 11.323L3.5917 7.95632C3.17503 7.53132 2.84167 6.78133 2.84167 6.273V4.33966C2.85001 3.33133 3.60001 2.573 4.50834 2.573Z" fill="#94A3B8"/>
</svg>
