<svg width="16" height="17" viewBox="0 0 16 17" fill="none" xmlns="http://www.w3.org/2000/svg">
<path opacity="0.4" d="M14.0533 6.62628V11.1863C14.0533 11.9329 13.6533 12.6263 13.0066 13.0063L9.04663 15.2929C8.39996 15.6663 7.59995 15.6663 6.94661 15.2929L2.98661 13.0063C2.33995 12.633 1.93994 11.9396 1.93994 11.1863V6.62628C1.93994 5.87962 2.33995 5.18626 2.98661 4.80626L6.94661 2.51959C7.59328 2.14626 8.3933 2.14626 9.04663 2.51959L13.0066 4.80626C13.6533 5.18626 14.0533 5.87295 14.0533 6.62628Z" fill="#FE964A"/>
<path d="M8 10.0729C7.72667 10.0729 7.5 9.84624 7.5 9.57291V6.07291C7.5 5.79957 7.72667 5.57291 8 5.57291C8.27333 5.57291 8.5 5.79957 8.5 6.07291V9.57291C8.5 9.84624 8.27333 10.0729 8 10.0729Z" fill="#FE964A"/>
<path d="M8.00004 12.4062C7.91337 12.4062 7.8267 12.3862 7.7467 12.3529C7.66004 12.3195 7.59336 12.2729 7.52669 12.2129C7.46669 12.1462 7.42005 12.0729 7.38005 11.9929C7.34671 11.9129 7.33337 11.8262 7.33337 11.7396C7.33337 11.5662 7.40003 11.3929 7.52669 11.2662C7.59336 11.2062 7.66004 11.1596 7.7467 11.1262C7.99337 11.0196 8.28672 11.0795 8.47339 11.2662C8.53339 11.3329 8.58003 11.3996 8.61336 11.4862C8.6467 11.5662 8.66671 11.6529 8.66671 11.7396C8.66671 11.8262 8.6467 11.9129 8.61336 11.9929C8.58003 12.0729 8.53339 12.1462 8.47339 12.2129C8.34672 12.3396 8.18004 12.4062 8.00004 12.4062Z" fill="#FE964A"/>
</svg>
