<svg width="25" height="24" viewBox="0 0 25 24" fill="none" xmlns="http://www.w3.org/2000/svg">
<path opacity="0.4" d="M7.51002 22H17.99C20.75 22 21.85 20.31 21.98 18.25L22.5 9.99C22.64 7.83 20.92 6 18.75 6C18.14 6 17.58 5.65 17.3 5.11L16.58 3.66C16.12 2.75 14.92 2 13.9 2H11.61C10.58 2 9.38001 2.75 8.92001 3.66L8.20001 5.11C7.92001 5.65 7.36001 6 6.75002 6C4.58001 6 2.86001 7.83 3.00001 9.99L3.52001 18.25C3.64001 20.31 4.75002 22 7.51002 22Z" fill="#FE964A"/>
<path d="M14.25 8.75H11.25C10.84 8.75 10.5 8.41 10.5 8C10.5 7.59 10.84 7.25 11.25 7.25H14.25C14.66 7.25 15 7.59 15 8C15 8.41 14.66 8.75 14.25 8.75Z" fill="#FE964A"/>
<path d="M12.75 18.13C14.6167 18.13 16.13 16.6167 16.13 14.75C16.13 12.8833 14.6167 11.37 12.75 11.37C10.8833 11.37 9.37 12.8833 9.37 14.75C9.37 16.6167 10.8833 18.13 12.75 18.13Z" fill="#FE964A"/>
</svg>
