<svg width="25" height="24" viewBox="0 0 25 24" fill="none" xmlns="http://www.w3.org/2000/svg">
<path d="M21.31 11.82L21.15 11.6C20.87 11.26 20.54 10.99 20.16 10.79C19.65 10.5 19.07 10.35 18.47 10.35H6.02C5.42 10.35 4.85 10.5 4.33 10.79C3.94 11 3.59 11.29 3.3 11.65C2.73 12.38 2.46 13.28 2.55 14.18L2.92 18.85C3.05 20.26 3.22 22 6.39 22H18.11C21.28 22 21.44 20.26 21.58 18.84L21.95 14.19C22.04 13.35 21.82 12.51 21.31 11.82ZM14.64 17.34H9.85C9.46 17.34 9.15 17.02 9.15 16.64C9.15 16.26 9.46 15.94 9.85 15.94H14.64C15.03 15.94 15.34 16.26 15.34 16.64C15.34 17.03 15.03 17.34 14.64 17.34Z" fill="#FE964A"/>
<path opacity="0.4" d="M3.63 11.31C3.85 11.11 4.07 10.93 4.33 10.79C4.84 10.5 5.42 10.35 6.02 10.35H18.48C19.08 10.35 19.65 10.5 20.17 10.79C20.43 10.93 20.66 11.11 20.87 11.32V10.79V9.82C20.87 6.25 19.78 5.16 16.21 5.16H13.83C13.39 5.16 13.38 5.15 13.12 4.81L11.92 3.2C11.35 2.46 10.9 2 9.47001 2H8.29C4.72 2 3.63 3.09 3.63 6.66V10.8V11.31Z" fill="#FE964A"/>
</svg>
