<svg width="18" height="19" viewBox="0 0 18 19" fill="none" xmlns="http://www.w3.org/2000/svg">
<path d="M16.5 12.6813C16.5 12.6738 16.4925 12.6662 16.485 12.6587C16.455 12.6137 16.4175 12.5688 16.38 12.5312C16.3725 12.5237 16.365 12.5088 16.3575 12.5013C15.75 11.8263 14.8575 11.4062 13.875 11.4062C12.93 11.4062 12.0675 11.7962 11.4525 12.4262C10.86 13.0337 10.5 13.8663 10.5 14.7812C10.5 15.4113 10.68 16.0113 10.9875 16.5213C11.1525 16.7988 11.3625 17.0537 11.6025 17.2637C11.6175 17.2712 11.625 17.2788 11.6325 17.2863C11.67 17.3238 11.7075 17.3537 11.7525 17.3912C11.7525 17.3912 11.7525 17.3912 11.76 17.3912C11.7675 17.3987 11.775 17.4062 11.7825 17.4062C12.345 17.8787 13.0725 18.1562 13.875 18.1562C15.105 18.1562 16.1775 17.4963 16.7625 16.5213C16.935 16.2288 17.07 15.9062 17.1525 15.5687C17.22 15.3137 17.25 15.0512 17.25 14.7812C17.25 13.9862 16.9725 13.2513 16.5 12.6813ZM15.135 15.3287H14.4375V16.0563C14.4375 16.3638 14.1825 16.6188 13.875 16.6188C13.5675 16.6188 13.3125 16.3638 13.3125 16.0563V15.3287H12.615C12.3075 15.3287 12.0525 15.0737 12.0525 14.7662C12.0525 14.4587 12.3075 14.2037 12.615 14.2037H13.3125V13.5363C13.3125 13.2288 13.5675 12.9738 13.875 12.9738C14.1825 12.9738 14.4375 13.2288 14.4375 13.5363V14.2037H15.135C15.4425 14.2037 15.6975 14.4587 15.6975 14.7662C15.6975 15.0737 15.45 15.3287 15.135 15.3287Z" fill="#FE964A"/>
<path opacity="0.4" d="M14.5126 5.15122L9.79505 2.60875C9.30005 2.33875 8.70005 2.33875 8.19755 2.60875L3.48005 5.15122C3.13505 5.33872 2.92505 5.70624 2.92505 6.11124C2.92505 6.51624 3.13505 6.88371 3.48005 7.07121L8.19755 9.61372C8.44505 9.74872 8.72256 9.81624 8.99256 9.81624C9.26256 9.81624 9.54006 9.74872 9.78756 9.61372L14.5051 7.07121C14.8501 6.88371 15.0601 6.51624 15.0601 6.11124C15.0751 5.70624 14.8576 5.33872 14.5126 5.15122Z" fill="#FE964A"/>
<path opacity="0.4" d="M7.42503 10.4988L3.03754 8.30129C2.70004 8.12879 2.31003 8.15129 1.98753 8.34629C1.66503 8.54129 1.47754 8.88631 1.47754 9.26131V13.4088C1.47754 14.1288 1.87504 14.7738 2.52004 15.0963L6.90754 17.2863C7.05754 17.3613 7.22254 17.3988 7.38754 17.3988C7.58254 17.3988 7.77754 17.3463 7.95004 17.2338C8.27254 17.0388 8.46004 16.6938 8.46004 16.3188V12.1713C8.46754 11.4663 8.07003 10.8213 7.42503 10.4988Z" fill="#FE964A"/>
<path opacity="0.4" d="M16.5225 9.26875V12.7112C16.515 12.7037 16.5075 12.6887 16.5 12.6812C16.5 12.6737 16.4925 12.6662 16.485 12.6587C16.455 12.6137 16.4175 12.5687 16.38 12.5312C16.3725 12.5237 16.365 12.5087 16.3575 12.5012C15.75 11.8262 14.8575 11.4062 13.875 11.4062C12.93 11.4062 12.0675 11.7962 11.4525 12.4262C10.86 13.0337 10.5 13.8662 10.5 14.7812C10.5 15.4112 10.68 16.0112 10.9875 16.5212C11.115 16.7387 11.2725 16.9337 11.445 17.1137L11.0925 17.2937C10.9425 17.3687 10.7775 17.4062 10.6125 17.4062C10.4175 17.4062 10.2225 17.3537 10.0425 17.2412C9.72747 17.0462 9.53247 16.7012 9.53247 16.3262V12.1862C9.53247 11.4662 9.92997 10.8212 10.575 10.4987L14.9625 8.30872C15.3 8.13622 15.69 8.15122 16.0125 8.35372C16.3275 8.54872 16.5225 8.89375 16.5225 9.26875Z" fill="#FE964A"/>
</svg>
