<svg width="18" height="18" viewBox="0 0 18 18" fill="none" xmlns="http://www.w3.org/2000/svg">
<g opacity="0.4">
<path d="M7.4925 13.485C10.8021 13.485 13.485 10.8021 13.485 7.4925C13.485 4.18293 10.8021 1.5 7.4925 1.5C4.18293 1.5 1.5 4.18293 1.5 7.4925C1.5 10.8021 4.18293 13.485 7.4925 13.485Z" fill="#FF8328"/>
<path d="M7.4925 13.485C10.8021 13.485 13.485 10.8021 13.485 7.4925C13.485 4.18293 10.8021 1.5 7.4925 1.5C4.18293 1.5 1.5 4.18293 1.5 7.4925C1.5 10.8021 4.18293 13.485 7.4925 13.485Z" fill="white" fill-opacity="0.1"/>
</g>
<path d="M16.478 11.9921C16.478 14.4671 14.468 16.4771 11.993 16.4771C10.463 16.4771 9.12055 15.7121 8.31055 14.5496C11.5805 14.1821 14.183 11.5796 14.5505 8.30957C15.713 9.11957 16.478 10.4621 16.478 11.9921Z" fill="#FF8328"/>
<path d="M16.478 11.9921C16.478 14.4671 14.468 16.4771 11.993 16.4771C10.463 16.4771 9.12055 15.7121 8.31055 14.5496C11.5805 14.1821 14.183 11.5796 14.5505 8.30957C15.713 9.11957 16.478 10.4621 16.478 11.9921Z" fill="white" fill-opacity="0.1"/>
<path d="M6.89278 11.1113C6.49882 11.1113 6.14201 11.01 5.82235 10.8074C5.50493 10.6026 5.2528 10.302 5.06596 9.90583C4.88136 9.50737 4.78906 9.01887 4.78906 8.44032C4.78906 7.84601 4.88474 7.35188 5.07609 6.95793C5.26744 6.56172 5.52182 6.26569 5.83923 6.06984C6.1589 5.87174 6.50895 5.77269 6.8894 5.77269C7.1798 5.77269 7.4218 5.82221 7.6154 5.92127C7.81125 6.01807 7.96883 6.13963 8.08815 6.28595C8.20971 6.43003 8.30201 6.57185 8.36504 6.71142H8.40894V4.11133H9.84406V11.0269H8.42582V10.1962H8.36504C8.2975 10.3403 8.20183 10.4833 8.07802 10.6251C7.95645 10.7646 7.79775 10.8806 7.60189 10.9729C7.40829 11.0652 7.17192 11.1113 6.89278 11.1113ZM7.34864 9.96661C7.58051 9.96661 7.77636 9.90358 7.93619 9.77751C8.09828 9.6492 8.22209 9.47023 8.30763 9.24061C8.39543 9.01099 8.43933 8.74198 8.43933 8.43357C8.43933 8.12516 8.39656 7.85727 8.31101 7.6299C8.22547 7.40253 8.10165 7.22694 7.93957 7.10313C7.77748 6.97931 7.58051 6.91741 7.34864 6.91741C7.11227 6.91741 6.91304 6.98156 6.75095 7.10988C6.58887 7.2382 6.46618 7.41604 6.38289 7.64341C6.29959 7.87077 6.25795 8.13416 6.25795 8.43357C6.25795 8.73522 6.29959 9.00199 6.38289 9.23386C6.46843 9.46347 6.59112 9.64357 6.75095 9.77414C6.91304 9.90245 7.11227 9.96661 7.34864 9.96661ZM7.06499 5.48566V4.6381H10.435V5.48566H7.06499Z" fill="#FF8F3D"/>
</svg>
