<svg width="24" height="24" viewBox="0 0 24 24" fill="none" xmlns="http://www.w3.org/2000/svg">
<g opacity="0.4">
<path d="M22 9V16.46C22 18.75 20.14 20.6 17.85 20.6H6.15C3.86 20.6 2 18.75 2 16.46V9H22Z" fill="url(#paint0_linear_7076_11483)"/>
<path d="M22 9V16.46C22 18.75 20.14 20.6 17.85 20.6H6.15C3.86 20.6 2 18.75 2 16.46V9H22Z" fill="white" fill-opacity="0.1"/>
</g>
<path d="M22 7.5399V8.9999H2V7.5399C2 5.2499 3.86 3.3999 6.15 3.3999H17.85C20.14 3.3999 22 5.2499 22 7.5399Z" fill="url(#paint1_linear_7076_11483)"/>
<path d="M22 7.5399V8.9999H2V7.5399C2 5.2499 3.86 3.3999 6.15 3.3999H17.85C20.14 3.3999 22 5.2499 22 7.5399Z" fill="white" fill-opacity="0.1"/>
<path d="M8 17.25H6C5.59 17.25 5.25 16.91 5.25 16.5C5.25 16.09 5.59 15.75 6 15.75H8C8.41 15.75 8.75 16.09 8.75 16.5C8.75 16.91 8.41 17.25 8 17.25Z" fill="url(#paint2_linear_7076_11483)"/>
<path d="M8 17.25H6C5.59 17.25 5.25 16.91 5.25 16.5C5.25 16.09 5.59 15.75 6 15.75H8C8.41 15.75 8.75 16.09 8.75 16.5C8.75 16.91 8.41 17.25 8 17.25Z" fill="white" fill-opacity="0.1"/>
<path d="M14.5 17.25H10.5C10.09 17.25 9.75 16.91 9.75 16.5C9.75 16.09 10.09 15.75 10.5 15.75H14.5C14.91 15.75 15.25 16.09 15.25 16.5C15.25 16.91 14.91 17.25 14.5 17.25Z" fill="url(#paint3_linear_7076_11483)"/>
<path d="M14.5 17.25H10.5C10.09 17.25 9.75 16.91 9.75 16.5C9.75 16.09 10.09 15.75 10.5 15.75H14.5C14.91 15.75 15.25 16.09 15.25 16.5C15.25 16.91 14.91 17.25 14.5 17.25Z" fill="white" fill-opacity="0.1"/>
<defs>
<linearGradient id="paint0_linear_7076_11483" x1="12" y1="9" x2="26.9247" y2="11.6902" gradientUnits="userSpaceOnUse">
<stop stop-color="#DC2A3C"/>
<stop offset="1" stop-color="#FF3E24"/>
</linearGradient>
<linearGradient id="paint1_linear_7076_11483" x1="12" y1="3.3999" x2="25.5242" y2="8.44953" gradientUnits="userSpaceOnUse">
<stop stop-color="#DC2A3C"/>
<stop offset="1" stop-color="#FF3E24"/>
</linearGradient>
<linearGradient id="paint2_linear_7076_11483" x1="7" y1="15.75" x2="9.54523" y2="16.3709" gradientUnits="userSpaceOnUse">
<stop stop-color="#DC2A3C"/>
<stop offset="1" stop-color="#FF3E24"/>
</linearGradient>
<linearGradient id="paint3_linear_7076_11483" x1="12.5" y1="15.75" x2="16.1947" y2="17.1663" gradientUnits="userSpaceOnUse">
<stop stop-color="#DC2A3C"/>
<stop offset="1" stop-color="#FF3E24"/>
</linearGradient>
</defs>
</svg>
