<svg width="24" height="24" viewBox="0 0 24 24" fill="none" xmlns="http://www.w3.org/2000/svg">
<path d="M3.5 5.6827V18.3173C3.5 18.6905 3.04667 19 2.5 19C1.95333 19 1.5 18.6905 1.5 18.3173V5.6827C1.5 5.30949 1.95333 5 2.5 5C3.04667 5 3.5 5.30949 3.5 5.6827Z" fill="#94A3B8"/>
<path d="M22.5 5.6827V18.3173C22.5 18.6905 22.0467 19 21.5 19C20.9533 19 20.5 18.6905 20.5 18.3173V5.6827C20.5 5.30949 20.9533 5 21.5 5C22.0467 5 22.5 5.30949 22.5 5.6827Z" fill="#94A3B8"/>
<path opacity="0.4" d="M7.59998 21.25H16.4C18.06 21.25 19.4 19.91 19.4 18.25V5.75C19.4 4.09 18.06 2.75 16.4 2.75H7.59998C5.93998 2.75 4.59998 4.09 4.59998 5.75V18.25C4.59998 19.91 5.93998 21.25 7.59998 21.25Z" fill="#94A3B8"/>
</svg>
