<svg width="16" height="17" viewBox="0 0 16 17" fill="none" xmlns="http://www.w3.org/2000/svg">
<g opacity="0.4">
<path d="M9.93337 2.23958H6.06671C5.61338 2.23958 4.97337 2.50625 4.65337 2.82625L1.92004 5.55959C1.60004 5.87959 1.33337 6.51958 1.33337 6.97292V10.8396C1.33337 11.2929 1.60004 11.9329 1.92004 12.2529L4.65337 14.9862C4.97337 15.3062 5.61338 15.5729 6.06671 15.5729H9.93337C10.3867 15.5729 11.0267 15.3062 11.3467 14.9862L14.08 12.2529C14.4 11.9329 14.6667 11.2929 14.6667 10.8396V6.97292C14.6667 6.51958 14.4 5.87959 14.08 5.55959L11.3467 2.82625C11.0267 2.50625 10.3867 2.23958 9.93337 2.23958Z" fill="#DA031A"/>
<path d="M9.93337 2.23958H6.06671C5.61338 2.23958 4.97337 2.50625 4.65337 2.82625L1.92004 5.55959C1.60004 5.87959 1.33337 6.51958 1.33337 6.97292V10.8396C1.33337 11.2929 1.60004 11.9329 1.92004 12.2529L4.65337 14.9862C4.97337 15.3062 5.61338 15.5729 6.06671 15.5729H9.93337C10.3867 15.5729 11.0267 15.3062 11.3467 14.9862L14.08 12.2529C14.4 11.9329 14.6667 11.2929 14.6667 10.8396V6.97292C14.6667 6.51958 14.4 5.87959 14.08 5.55959L11.3467 2.82625C11.0267 2.50625 10.3867 2.23958 9.93337 2.23958Z" fill="white" fill-opacity="0.3"/>
</g>
<path d="M8.70667 8.90625L10.6867 6.92625C10.88 6.73292 10.88 6.41292 10.6867 6.21958C10.4933 6.02625 10.1733 6.02625 9.98 6.21958L8 8.19959L6.02 6.21958C5.82667 6.02625 5.50667 6.02625 5.31333 6.21958C5.12 6.41292 5.12 6.73292 5.31333 6.92625L7.29334 8.90625L5.31333 10.8863C5.12 11.0796 5.12 11.3996 5.31333 11.5929C5.41333 11.6929 5.54 11.7396 5.66667 11.7396C5.79333 11.7396 5.92 11.6929 6.02 11.5929L8 9.61292L9.98 11.5929C10.08 11.6929 10.2067 11.7396 10.3333 11.7396C10.46 11.7396 10.5867 11.6929 10.6867 11.5929C10.88 11.3996 10.88 11.0796 10.6867 10.8863L8.70667 8.90625Z" fill="#DA031A"/>
<path d="M8.70667 8.90625L10.6867 6.92625C10.88 6.73292 10.88 6.41292 10.6867 6.21958C10.4933 6.02625 10.1733 6.02625 9.98 6.21958L8 8.19959L6.02 6.21958C5.82667 6.02625 5.50667 6.02625 5.31333 6.21958C5.12 6.41292 5.12 6.73292 5.31333 6.92625L7.29334 8.90625L5.31333 10.8863C5.12 11.0796 5.12 11.3996 5.31333 11.5929C5.41333 11.6929 5.54 11.7396 5.66667 11.7396C5.79333 11.7396 5.92 11.6929 6.02 11.5929L8 9.61292L9.98 11.5929C10.08 11.6929 10.2067 11.7396 10.3333 11.7396C10.46 11.7396 10.5867 11.6929 10.6867 11.5929C10.88 11.3996 10.88 11.0796 10.6867 10.8863L8.70667 8.90625Z" fill="white" fill-opacity="0.3"/>
</svg>
