<svg width="24" height="25" viewBox="0 0 24 25" fill="none" xmlns="http://www.w3.org/2000/svg">
<g opacity="0.4">
<path d="M18.35 20.5863C17.8 21.9963 16.46 22.9062 14.95 22.9062H9.04998C7.52998 22.9062 6.19998 21.9963 5.64998 20.5863C5.09998 19.1663 5.47998 17.5963 6.59998 16.5763L10.65 12.9062H13.36L17.4 16.5763C18.52 17.5963 18.89 19.1663 18.35 20.5863Z" fill="url(#paint0_linear_6831_14834)"/>
<path d="M18.35 20.5863C17.8 21.9963 16.46 22.9062 14.95 22.9062H9.04998C7.52998 22.9062 6.19998 21.9963 5.64998 20.5863C5.09998 19.1663 5.47998 17.5963 6.59998 16.5763L10.65 12.9062H13.36L17.4 16.5763C18.52 17.5963 18.89 19.1663 18.35 20.5863Z" fill="white" fill-opacity="0.1"/>
</g>
<path d="M13.82 19.0463H10.18C9.8 19.0463 9.5 18.7363 9.5 18.3663C9.5 17.9863 9.81 17.6863 10.18 17.6863H13.82C14.2 17.6863 14.5 17.9963 14.5 18.3663C14.5 18.7363 14.19 19.0463 13.82 19.0463Z" fill="url(#paint1_linear_6831_14834)"/>
<path d="M13.82 19.0463H10.18C9.8 19.0463 9.5 18.7363 9.5 18.3663C9.5 17.9863 9.81 17.6863 10.18 17.6863H13.82C14.2 17.6863 14.5 17.9963 14.5 18.3663C14.5 18.7363 14.19 19.0463 13.82 19.0463Z" fill="white" fill-opacity="0.1"/>
<path d="M18.35 5.22625C17.8 3.81625 16.46 2.90625 14.95 2.90625H9.05004C7.54004 2.90625 6.20004 3.81625 5.65004 5.22625C5.11004 6.64625 5.48004 8.21625 6.61004 9.23625L10.65 12.9062H13.36L17.4 9.23625C18.52 8.21625 18.89 6.64625 18.35 5.22625ZM13.82 8.13625H10.18C9.80004 8.13625 9.50004 7.82625 9.50004 7.45625C9.50004 7.08625 9.81004 6.77625 10.18 6.77625H13.82C14.2 6.77625 14.5 7.08625 14.5 7.45625C14.5 7.82625 14.19 8.13625 13.82 8.13625Z" fill="url(#paint2_linear_6831_14834)"/>
<path d="M18.35 5.22625C17.8 3.81625 16.46 2.90625 14.95 2.90625H9.05004C7.54004 2.90625 6.20004 3.81625 5.65004 5.22625C5.11004 6.64625 5.48004 8.21625 6.61004 9.23625L10.65 12.9062H13.36L17.4 9.23625C18.52 8.21625 18.89 6.64625 18.35 5.22625ZM13.82 8.13625H10.18C9.80004 8.13625 9.50004 7.82625 9.50004 7.45625C9.50004 7.08625 9.81004 6.77625 10.18 6.77625H13.82C14.2 6.77625 14.5 7.08625 14.5 7.45625C14.5 7.82625 14.19 8.13625 13.82 8.13625Z" fill="white" fill-opacity="0.1"/>
<defs>
<linearGradient id="paint0_linear_6831_14834" x1="11.9978" y1="12.9063" x2="21.9735" y2="14.2823" gradientUnits="userSpaceOnUse">
<stop stop-color="#DC2A3C"/>
<stop offset="1" stop-color="#FF3E24"/>
</linearGradient>
<linearGradient id="paint1_linear_6831_14834" x1="12" y1="17.6863" x2="15.3565" y2="18.9764" gradientUnits="userSpaceOnUse">
<stop stop-color="#DC2A3C"/>
<stop offset="1" stop-color="#FF3E24"/>
</linearGradient>
<linearGradient id="paint2_linear_6831_14834" x1="12.0002" y1="2.90625" x2="21.9725" y2="4.2813" gradientUnits="userSpaceOnUse">
<stop stop-color="#DC2A3C"/>
<stop offset="1" stop-color="#FF3E24"/>
</linearGradient>
</defs>
</svg>
