<svg width="241" height="206" viewBox="0 0 241 206" fill="none" xmlns="http://www.w3.org/2000/svg">
<path d="M239.501 204.04C245.29 192.584 228.746 135.308 114.038 135.308C31.2419 135.308 -6.75931 182.19 1.64201 205.949" fill="url(#paint0_radial_4545_210128)"/>
<mask id="mask0_4545_210128" style="mask-type:luminance" maskUnits="userSpaceOnUse" x="0" y="135" width="241" height="71">
<path d="M239.501 204.04C245.29 192.584 228.746 135.308 114.038 135.308C31.2419 135.308 -6.75931 182.19 1.64201 205.949" fill="white"/>
</mask>
<g mask="url(#mask0_4545_210128)">
<ellipse opacity="0.671968" cx="96.3455" cy="167.428" rx="6.30841" ry="3.50401" fill="url(#paint1_linear_4545_210128)"/>
<ellipse opacity="0.729957" cx="160.735" cy="162.079" rx="9.95327" ry="5.46626" fill="url(#paint2_linear_4545_210128)"/>
<ellipse opacity="0.729957" cx="47.463" cy="147.501" rx="9.95327" ry="5.46626" fill="url(#paint3_linear_4545_210128)"/>
</g>
<g opacity="0.320685">
<ellipse cx="186.651" cy="39.7726" rx="6.72897" ry="6.7277" fill="url(#paint4_linear_4545_210128)"/>
<path d="M192.775 43.8781C190.858 43.7895 188.351 43.2351 185.782 42.3003C183.213 41.3654 180.935 40.1787 179.41 39.0147C178.766 38.5231 178.296 38.0638 178.032 37.6905C178.109 37.6703 178.197 37.6512 178.295 37.634C179.035 37.5039 180.114 37.5222 181.401 37.7036L181.87 34.372C178.143 33.8466 175.439 34.322 174.659 36.4631C173.526 39.5775 178.142 43.1006 184.631 45.4619C191.12 47.8232 196.921 48.0913 198.055 44.9771C198.85 42.7931 197.109 41.0677 193.411 38.779L191.64 41.6398C192.898 42.4183 193.838 43.1061 194.409 43.6724C194.449 43.7119 194.486 43.7502 194.521 43.7871C194.087 43.8761 193.491 43.9112 192.775 43.8781Z" fill="url(#paint5_linear_4545_210128)"/>
<path d="M193.392 39.7729C193.392 36.0573 190.379 33.0452 186.663 33.0452C182.947 33.0452 180.619 35.4208 180.139 38.0994C180.139 38.0994 184.007 40.5209 185.793 41.0414C186.363 41.2074 186.927 41.4227 187.502 41.6136C188.146 41.8271 188.8 42.0155 189.463 42.1789C189.917 42.2907 190.538 42.4635 191.119 42.5714C191.884 42.7138 192.57 42.7773 192.624 42.7773C192.719 42.7773 192.823 42.3543 193.037 41.8614C193.251 41.3684 193.392 39.7729 193.392 39.7729Z" fill="url(#paint6_linear_4545_210128)"/>
</g>
<circle opacity="0.418364" cx="38.809" cy="79.4611" r="7.84615" fill="url(#paint7_linear_4545_210128)"/>
<ellipse opacity="0.425921" cx="123.731" cy="146.384" rx="23.5385" ry="6.46154" fill="url(#paint8_linear_4545_210128)"/>
<path d="M107.483 109.462C107.483 109.462 106.839 111.329 106.839 112.641C106.194 124.066 107.792 142.693 107.792 142.693H110.273L113.936 114.665L118.901 142.693H121.342C121.342 142.693 121.664 124.701 120.697 112.641C120.697 111.342 120.135 110.097 120.135 110.097L107.483 109.462Z" fill="url(#paint9_linear_4545_210128)"/>
<path d="M105.3 95.0008L100.381 96.1648L98.702 95.7188L88.0379 94.1702L85.4628 94.1702L85.4527 90.7613L86.0879 92.0701L87.231 92.4292C87.231 92.4292 87.8472 91.1847 88.0379 91.397C88.2286 91.6093 88.3113 92.4837 88.3113 92.4837L89.2641 92.9769L100.617 92.9769L103.3 91.4008L105.3 95.0008Z" fill="#FDE7E6"/>
<path d="M121.301 95.0008L126.367 96.1648L128.046 95.7188L138.71 94.1702L141.628 92.6827L142.619 90.7025L142.248 90.65L140.66 92.0701L139.517 92.4292C139.517 92.4292 138.901 91.1847 138.71 91.397C138.519 91.6093 138.437 92.4837 138.437 92.4837L137.484 92.9769L126.131 92.9769L123.301 91.4008L121.301 95.0008Z" fill="#FDE7E6"/>
<path d="M124.193 91.6085L122.631 95.4095H118.815L120.5 111.197C120.5 111.197 115.687 112.006 113.142 112.202C110.597 112.399 106.975 111.197 106.975 111.197C106.975 111.197 106.975 105.692 106.975 95.8118L103.586 95.4095L102.962 91.6085C102.962 91.6085 106.127 89.3864 106.975 89.0171C107.823 88.6477 110.69 88.23 110.69 88.23L115.225 88.23C115.225 88.23 118.828 88.3692 119.509 89.0171C120.19 89.6649 124.193 91.6085 124.193 91.6085Z" fill="url(#paint10_linear_4545_210128)"/>
<path fill-rule="evenodd" clip-rule="evenodd" d="M114.916 85.4622H112.076V89.2308H112.076C112.076 89.2308 112.076 89.2308 112.076 89.2309V89.2314H112.077C112.101 89.2661 113.212 90.8587 113.212 91.388C113.212 91.9186 114.888 89.2763 114.916 89.2314H114.916V85.4622Z" fill="#FECECD"/>
<ellipse cx="113.362" cy="84.3129" rx="2.98944" ry="4.23698" fill="#FFE9E9"/>
<path fill-rule="evenodd" clip-rule="evenodd" d="M110.081 84.5883C110.32 83.7894 110.32 82.0275 110.798 81.9701C111.277 81.9126 112.233 82.2462 113.19 81.599C113.668 81.2437 113.907 81.1992 113.907 81.0208C116.299 81.4459 114.869 82.7289 116.06 84.1423C116.184 84.2897 116.538 84.1423 116.538 84.1423C116.538 84.1423 116.538 80.6623 116.299 80.3518C116.06 80.0414 115.103 78.7911 114.625 79.6829C114.625 79.237 113.668 78.7769 112.712 79.1184C111.755 79.46 110.32 80.1289 110.081 81.0208C109.842 81.9126 109.603 83.6964 110.081 84.5883Z" fill="#513450"/>
<path d="M107.982 142.692L107.318 143.822C106.883 144.563 106.653 145.407 106.653 146.266C106.653 146.331 106.706 146.384 106.771 146.384H109.857C110.127 146.384 110.346 146.165 110.346 145.895C110.346 144.998 110.181 144.108 109.859 143.27L109.637 142.692H107.982Z" fill="#677285"/>
<path d="M121.019 142.692L121.683 143.822C122.118 144.563 122.348 145.407 122.348 146.266C122.348 146.331 122.295 146.384 122.23 146.384H119.144C118.874 146.384 118.655 146.165 118.655 145.895C118.655 144.998 118.82 144.108 119.142 143.27L119.364 142.692H121.019Z" fill="#677285"/>
<path d="M85.4629 4.03442H88.2321V144.804C88.2321 145.568 87.6122 146.188 86.8475 146.188C86.0828 146.188 85.4629 145.568 85.4629 144.804V4.03442Z" fill="#D8D8D8"/>
<path d="M85.4238 4.11608L102.415 8.15753C108.674 9.64627 115.269 8.5796 120.739 5.19352C128.457 0.416111 137.898 -0.689517 146.511 2.1752L152.347 4.11608L147.732 38.6509L146.432 38.1207C138.074 34.7106 128.531 36.0345 121.417 41.5909C115.724 46.0376 108.068 47.0489 101.415 44.2328L85.4238 37.4635V4.11608Z" fill="url(#paint11_linear_4545_210128)"/>
<path d="M122.08 19.5798L122.08 26.4198C122.08 27.5398 121.48 28.5798 120.51 29.1498L114.57 32.5798C113.6 33.1398 112.4 33.1398 111.42 32.5798L105.48 29.1498C104.51 28.5898 103.91 27.5498 103.91 26.4198L103.91 19.5798C103.91 18.4598 104.51 17.4197 105.48 16.8497L111.42 13.4198C112.39 12.8598 113.59 12.8598 114.57 13.4198L120.51 16.8497C121.48 17.4197 122.08 18.4498 122.08 19.5798Z" fill="white"/>
<path d="M113 24.7498C112.59 24.7498 112.25 24.4098 112.25 23.9998L112.25 18.7498C112.25 18.3398 112.59 17.9998 113 17.9998C113.41 17.9998 113.75 18.3398 113.75 18.7498L113.75 23.9998C113.75 24.4098 113.41 24.7498 113 24.7498Z" fill="#FF8960"/>
<path d="M113 28.2499C112.87 28.2499 112.74 28.2198 112.62 28.1698C112.49 28.1198 112.39 28.0499 112.29 27.9599C112.2 27.8599 112.13 27.7499 112.07 27.6299C112.02 27.5099 112 27.3799 112 27.2499C112 26.9899 112.1 26.7298 112.29 26.5398C112.39 26.4498 112.49 26.3799 112.62 26.3299C112.99 26.1699 113.43 26.2598 113.71 26.5398C113.8 26.6398 113.87 26.7399 113.92 26.8699C113.97 26.9899 114 27.1199 114 27.2499C114 27.3799 113.97 27.5099 113.92 27.6299C113.87 27.7499 113.8 27.8599 113.71 27.9599C113.52 28.1499 113.27 28.2499 113 28.2499Z" fill="#FF8960"/>
<path d="M84.8693 91.519C84.8693 91.519 86.2539 90.8267 86.2539 91.0574C86.2539 91.2882 86.2539 93.8267 86.2539 93.8267L85.3308 94.2882L84.8693 91.519Z" fill="#FFE9E9"/>
<defs>
<radialGradient id="paint0_radial_4545_210128" cx="0" cy="0" r="1" gradientUnits="userSpaceOnUse" gradientTransform="translate(104.589 159.806) rotate(-90) scale(41.0722 428.958)">
<stop stop-color="#EBEDF0" stop-opacity="0.24"/>
<stop offset="0.536775" stop-color="#EBEDF0" stop-opacity="0.845525"/>
<stop offset="1" stop-color="#E0E4E7" stop-opacity="0.01"/>
</radialGradient>
<linearGradient id="paint1_linear_4545_210128" x1="91.2678" y1="166.499" x2="93.1897" y2="170.609" gradientUnits="userSpaceOnUse">
<stop stop-color="#E1E7EA"/>
<stop offset="1" stop-color="#D0D6DC"/>
</linearGradient>
<linearGradient id="paint2_linear_4545_210128" x1="152.377" y1="161.568" x2="155.894" y2="168.903" gradientUnits="userSpaceOnUse">
<stop stop-color="#E1E7EA"/>
<stop offset="1" stop-color="#D0D6DC"/>
</linearGradient>
<linearGradient id="paint3_linear_4545_210128" x1="41.1166" y1="147.59" x2="43.1065" y2="155.517" gradientUnits="userSpaceOnUse">
<stop stop-color="#FBFBFB"/>
<stop offset="1" stop-color="#D9DFE3"/>
</linearGradient>
<linearGradient id="paint4_linear_4545_210128" x1="177.459" y1="35.1399" x2="180.823" y2="46.7721" gradientUnits="userSpaceOnUse">
<stop stop-color="#ECECEC"/>
<stop offset="0.717538" stop-color="#E1E7EA"/>
<stop offset="1" stop-color="#BCC3CA"/>
</linearGradient>
<linearGradient id="paint5_linear_4545_210128" x1="180.311" y1="42.4024" x2="196.807" y2="48.4065" gradientUnits="userSpaceOnUse">
<stop stop-color="#BAC6D2"/>
<stop offset="1" stop-color="#7F8F9F"/>
</linearGradient>
<linearGradient id="paint6_linear_4545_210128" x1="184.174" y1="39.1939" x2="186.375" y2="43.6389" gradientUnits="userSpaceOnUse">
<stop stop-color="#E1E7EA"/>
<stop offset="1" stop-color="#D0D6DC"/>
</linearGradient>
<linearGradient id="paint7_linear_4545_210128" x1="49.1241" y1="81.79" x2="41.2894" y2="68.5586" gradientUnits="userSpaceOnUse">
<stop stop-color="#DAE2E6"/>
<stop offset="0.58" stop-color="#E3EBEF"/>
<stop offset="1" stop-color="#EDF6F9"/>
</linearGradient>
<linearGradient id="paint8_linear_4545_210128" x1="106.062" y1="147.15" x2="119.284" y2="167.717" gradientUnits="userSpaceOnUse">
<stop stop-color="#C4CDD1"/>
<stop offset="1" stop-color="#C6CFD3" stop-opacity="0.01"/>
</linearGradient>
<linearGradient id="paint9_linear_4545_210128" x1="121.367" y1="142.693" x2="121.367" y2="109.711" gradientUnits="userSpaceOnUse">
<stop stop-color="#A1A7B8"/>
<stop offset="1" stop-color="#7B8195"/>
</linearGradient>
<linearGradient id="paint10_linear_4545_210128" x1="134.933" y1="99.1882" x2="114.501" y2="122.558" gradientUnits="userSpaceOnUse">
<stop stop-color="#E5E9F0"/>
<stop offset="1" stop-color="#D2DAE8"/>
</linearGradient>
<linearGradient id="paint11_linear_4545_210128" x1="85.0005" y1="22.9998" x2="148" y2="41.9998" gradientUnits="userSpaceOnUse">
<stop stop-color="#FFB89F"/>
<stop offset="1" stop-color="#FF8960"/>
</linearGradient>
</defs>
</svg>
